# xmcd
#
# Track frame offsets:
#	182
#	13687
#	26262
#	38975
#	52440
#	64575
#	77475
#	91275
#	104787
#	116762
#	128662
#	141187
#	153842
#	168192
#
# Disc length: 2376 seconds
#
# Revision: 1
# Processed by: cddbd v1.5.2PL0 Copyright (c) Steve Scherf et al.
# Submitted via: EasyCDDAExtractor 16.0.9.1
#
DISCID=b509460e
DTITLE=Dionne Warwick - N-035 Dionne Warwick
DYEAR=1993
DGENRE=Vocal
TTITLE0=Anyone who had a heart
TTITLE1=Don't make me over
TTITLE2=Walk on by
TTITLE3=I say a little prayer
TTITLE4=Do you know the way to San Jose?
TTITLE5=Are you there with another girl?
TTITLE6=A house is not a home
TTITLE7=You'll never get to heaven
TTITLE8=Make it easy on yourself
TTITLE9=Reach out for me
TTITLE10=Trains and boats and planes
TTITLE11=I just don't know what to do with myself
TTITLE12=The windows of the world
TTITLE13=I'll never fall in love again
EXTD=CD 3030 - PERFIL\nDIVUCSA 1993
EXTT0=
EXTT1=
EXTT2=
EXTT3=
EXTT4=
EXTT5=
EXTT6=
EXTT7=
EXTT8=
EXTT9=
EXTT10=
EXTT11=
EXTT12=
EXTT13=
PLAYORDER=
